<?xml version="1.0" standalone="no"?>
<!DOCTYPE svg PUBLIC "-//W3C//DTD SVG 20010904//EN"
 "http://www.w3.org/TR/2001/REC-SVG-20010904/DTD/svg10.dtd">
<svg version="1.0" xmlns="http://www.w3.org/2000/svg"
 width="375.000000pt" height="375.000000pt" viewBox="0 0 375.000000 375.000000"
 preserveAspectRatio="xMidYMid meet">
<metadata>
Created by potrace 1.14, written by Peter Selinger 2001-2017
</metadata>
<g transform="translate(0.000000,375.000000) scale(0.100000,-0.100000)"
fill="#000000" stroke="none">
<path d="M1680 3740 c-122 -16 -157 -21 -195 -32 -22 -5 -47 -11 -55 -13 -234
-45 -587 -227 -784 -405 -306 -274 -499 -595 -596 -986 -36 -145 -45 -242 -44
-449 1 -162 9 -240 39 -390 9 -44 67 -237 76 -255 5 -8 20 -44 35 -80 114
-280 344 -571 605 -762 119 -87 245 -160 372 -214 75 -32 268 -95 334 -109
235 -50 536 -54 763 -11 711 136 1287 684 1464 1391 24 97 27 116 43 235 10
72 10 347 1 430 -39 342 -182 683 -405 962 -117 147 -325 331 -468 414 -27 16
-63 37 -80 47 -149 87 -457 195 -605 212 -26 3 -57 8 -71 11 -39 8 -369 11
-429 4z"/>
</g>
</svg>
